{
  "accessors": [
    {
      "bufferView": 2,
      "componentType": 5126,
      "count": 65532,
      "max": [
        3.1554160118103027,
        3.3863983154296875,
        0.9435439705848694
      ],
      "min": [
        -3.0249016284942627,
        -3.5040671825408936,
        -1.4944700002670288
      ],
      "type": "VEC3"
    },
    {
      "bufferView": 2,
      "byteOffset": 786384,
      "componentType": 5126,
      "count": 65532,
      "max": [
        0.9999074935913086,
        0.9999304413795471,
        0.9999812245368958
      ],
      "min": [
        -0.9998440742492676,
        -0.9999209046363831,
        -0.9999968409538269
      ],
      "type": "VEC3"
    },
    {
      "bufferView": 1,
      "componentType": 5126,
      "count": 65532,
      "max": [
        0.9999709725379944,
        0.9980189800262451
      ],
      "min": [
        0.00017699999443721026,
        3.300000025774352e-05
      ],
      "type": "VEC2"
    },
    {
      "bufferView": 0,
      "componentType": 5125,
      "count": 360720,
      "type": "SCALAR"
    },
    {
      "bufferView": 2,
      "byteOffset": 1572768,
      "componentType": 5126,
      "count": 42005,
      "max": [
        3.674384355545044,
        3.840190887451172,
        1.074941873550415
      ],
      "min": [
        -4.193574905395508,
        -3.317673921585083,
        -1.1543844938278198
      ],
      "type": "VEC3"
    },
    {
      "bufferView": 2,
      "byteOffset": 2076828,
      "componentType": 5126,
      "count": 42005,
      "max": [
        0.9999801516532898,
        0.9999215006828308,
        0.9997063875198364
      ],
      "min": [
        -0.9999710917472839,
        -0.999882698059082,
        -0.9999959468841553
      ],
      "type": "VEC3"
    },
    {
      "bufferView": 1,
      "byteOffset": 524256,
      "componentType": 5126,
      "count": 42005,
      "max": [
        0.9998679757118225,
        0.9987599849700928
      ],
      "min": [
        0.00023099999816622585,
        0.00044299999717622995
      ],
      "type": "VEC2"
    },
    {
      "bufferView": 0,
      "byteOffset": 1442880,
      "componentType": 5125,
      "count": 214593,
      "type": "SCALAR"
    },
    {
      "bufferView": 2,
      "byteOffset": 2580888,
      "componentType": 5126,
      "count": 12880,
      "max": [
        7.691381454467773,
        1.0852588415145874,
        7.691382884979248
      ],
      "min": [
        -7.691381454467773,
        0.000650135159958154,
        -7.691382884979248
      ],
      "type": "VEC3"
    },
    {
      "bufferView": 2,
      "byteOffset": 2735448,
      "componentType": 5126,
      "count": 12880,
      "max": [
        0.8354218006134033,
        0.9999582767486572,
        0.8354244828224182
      ],
      "min": [
        -0.8354220390319824,
        -0.9999921917915344,
        -0.8354183435440063
      ],
      "type": "VEC3"
    },
    {
      "bufferView": 1,
      "byteOffset": 860296,
      "componentType": 5126,
      "count": 12880,
      "max": [
        0.9999995231628418,
        0.5
      ],
      "min": [
        0.0,
        0.0
      ],
      "type": "VEC2"
    },
    {
      "bufferView": 0,
      "byteOffset": 2301252,
      "componentType": 5125,
      "count": 19320,
      "type": "SCALAR"
    }
  ],
  "asset": {
    "extras": {
      "author": "Michael Bastianelli (https://sketchfab.com/mbastianelli)",
      "license": "CC-BY-4.0 (http://creativecommons.org/licenses/by/4.0/)",
      "source": "https://sketchfab.com/3d-models/pasta-with-meatballs-and-sausage-e8ef88c544114de6acd20cc050f42f73",
      "title": "Pasta with Meatballs and Sausage"
    },
    "generator": "Sketchfab-16.12.0",
    "version": "2.0"
  },
  "bufferViews": [
    {
      "buffer": 0,
      "byteLength": 2378532,
      "name": "floatBufferViews",
      "target": 34963
    },
    {
      "buffer": 0,
      "byteLength": 963336,
      "byteOffset": 2378532,
      "byteStride": 8,
      "name": "floatBufferViews",
      "target": 34962
    },
    {
      "buffer": 0,
      "byteLength": 2890008,
      "byteOffset": 3341868,
      "byteStride": 12,
      "name": "floatBufferViews",
      "target": 34962
    }
  ],
  "buffers": [
    {
      "byteLength": 6231876,
      "uri": "scene.bin"
    }
  ],
  "extensionsUsed": [
    "KHR_materials_specular"
  ],
  "images": [
    {
      "uri": "textures/3DModel_baseColor.jpeg"
    }
  ],
  "materials": [
    {
      "doubleSided": true,
      "extensions": {
        "KHR_materials_specular": {
          "specularColorFactor": [
            1.0,
            1.0,
            1.0
          ],
          "specularFactor": 0.0
        }
      },
      "name": "3DModel",
      "pbrMetallicRoughness": {
        "baseColorTexture": {
          "index": 0
        },
        "metallicFactor": 0.0
      }
    },
    {
      "doubleSided": true,
      "extensions": {
        "KHR_materials_specular": {
          "specularColorFactor": [
            1.0,
            1.0,
            1.0
          ],
          "specularFactor": 0.0
        }
      },
      "name": "Material",
      "pbrMetallicRoughness": {
        "baseColorFactor": [
          0.5348587729029269,
          0.503123037683241,
          0.503123037683241,
          1.0
        ],
        "metallicFactor": 0.0,
        "roughnessFactor": 0.8396216064658483
      }
    }
  ],
  "meshes": [
    {
      "name": "Object_0",
      "primitives": [
        {
          "attributes": {
            "NORMAL": 1,
            "POSITION": 0,
            "TEXCOORD_0": 2
          },
          "indices": 3,
          "material": 0,
          "mode": 4
        }
      ]
    },
    {
      "name": "Object_1",
      "primitives": [
        {
          "attributes": {
            "NORMAL": 5,
            "POSITION": 4,
            "TEXCOORD_0": 6
          },
          "indices": 7,
          "material": 0,
          "mode": 4
        }
      ]
    },
    {
      "name": "Object_2",
      "primitives": [
        {
          "attributes": {
            "NORMAL": 9,
            "POSITION": 8,
            "TEXCOORD_0": 10
          },
          "indices": 11,
          "material": 1,
          "mode": 4
        }
      ]
    }
  ],
  "nodes": [
    {
      "children": [
        1
      ],
      "matrix": [
        1.0,
        0.0,
        0.0,
        0.0,
        0.0,
        2.220446049250313e-16,
        -1.0,
        0.0,
        0.0,
        1.0,
        2.220446049250313e-16,
        0.0,
        0.0,
        0.0,
        0.0,
        1.0
      ],
      "name": "Sketchfab_model"
    },
    {
      "children": [
        2
      ],
      "name": "root"
    },
    {
      "children": [
        3,
        6
      ],
      "matrix": [
        1.0,
        0.0,
        0.0,
        0.0,
        0.0,
        2.220446049250313e-16,
        1.0,
        0.0,
        0.0,
        -1.0,
        2.220446049250313e-16,
        0.0,
        0.0,
        0.0,
        0.0,
        1.0
      ],
      "name": "GLTF_SceneRootNode"
    },
    {
      "children": [
        4,
        5
      ],
      "matrix": [
        0.9990124543667772,
        0.042247693154586353,
        -0.013756759908635292,
        0.0,
        0.012754263759559396,
        0.023907583020781442,
        0.9996328107010374,
        0.0,
        0.04256107113336679,
        -0.9988210850283551,
        0.02334513496984192,
        0.0,
        0.0,
        0.08028645068407059,
        0.0,
        1.0
      ],
      "name": "3DModel_2"
    },
    {
      "mesh": 0,
      "name": "Object_4"
    },
    {
      "mesh": 1,
      "name": "Object_5"
    },
    {
      "children": [
        7
      ],
      "matrix": [
        0.6336092948913574,
        0.0,
        0.0,
        0.0,
        0.0,
        0.5515299439430237,
        0.0,
        0.0,
        0.0,
        0.0,
        0.6336092948913574,
        0.0,
        0.0,
        -0.869604229927063,
        0.0,
        1.0
      ],
      "name": "Circle_3"
    },
    {
      "mesh": 2,
      "name": "Object_7"
    }
  ],
  "samplers": [
    {
      "magFilter": 9729,
      "minFilter": 9987,
      "wrapS": 10497,
      "wrapT": 10497
    }
  ],
  "scene": 0,
  "scenes": [
    {
      "name": "Sketchfab_Scene",
      "nodes": [
        0
      ]
    }
  ],
  "textures": [
    {
      "sampler": 0,
      "source": 0
    }
  ]
}
