{
  "accessors": [
    {
      "bufferView": 2,
      "componentType": 5126,
      "count": 65065,
      "max": [
        1.3842692375183105,
        1.3637959957122803,
        3.4436700344085693
      ],
      "min": [
        -1.3557883501052856,
        -1.2747849225997925,
        2.3742799758911133
      ],
      "type": "VEC3"
    },
    {
      "bufferView": 2,
      "byteOffset": 780780,
      "componentType": 5126,
      "count": 65065,
      "max": [
        0.9999871253967285,
        0.9999909400939941,
        0.9999977350234985
      ],
      "min": [
        -0.9999042749404907,
        -0.9999955892562866,
        -0.9999759197235107
      ],
      "type": "VEC3"
    },
    {
      "bufferView": 3,
      "componentType": 5126,
      "count": 65065,
      "max": [
        0.9999956488609314,
        0.9999904632568359,
        0.42337697744369507,
        1.0
      ],
      "min": [
        -0.9999571442604065,
        -0.9999894499778748,
        -0.49690529704093933,
        1.0
      ],
      "type": "VEC4"
    },
    {
      "bufferView": 1,
      "componentType": 5126,
      "count": 65065,
      "max": [
        0.9716768264770508,
        0.983942985534668
      ],
      "min": [
        0.014119982719421387,
        0.01158440113067627
      ],
      "type": "VEC2"
    },
    {
      "bufferView": 0,
      "componentType": 5125,
      "count": 387072,
      "type": "SCALAR"
    },
    {
      "bufferView": 2,
      "byteOffset": 1561560,
      "componentType": 5126,
      "count": 3936,
      "max": [
        1.481942892074585,
        1.4819425344467163,
        2.7855935096740723
      ],
      "min": [
        -1.4819425344467163,
        -1.4819425344467163,
        0.9038987159729004
      ],
      "type": "VEC3"
    },
    {
      "bufferView": 2,
      "byteOffset": 1608792,
      "componentType": 5126,
      "count": 3936,
      "max": [
        0.9950689077377319,
        0.9950689077377319,
        1.0
      ],
      "min": [
        -0.9950689077377319,
        -0.9950689077377319,
        -0.5797892808914185
      ],
      "type": "VEC3"
    },
    {
      "bufferView": 3,
      "byteOffset": 1041040,
      "componentType": 5126,
      "count": 3936,
      "max": [
        0.9999670386314392,
        1.0,
        0.4868406057357788,
        1.0
      ],
      "min": [
        -0.999967098236084,
        -0.9999997019767761,
        -0.48687034845352173,
        1.0
      ],
      "type": "VEC4"
    },
    {
      "bufferView": 1,
      "byteOffset": 520520,
      "componentType": 5126,
      "count": 3936,
      "max": [
        0.9787364602088928,
        0.984670877456665
      ],
      "min": [
        0.013538164086639881,
        0.021445155143737793
      ],
      "type": "VEC2"
    },
    {
      "bufferView": 0,
      "byteOffset": 1548288,
      "componentType": 5125,
      "count": 21408,
      "type": "SCALAR"
    },
    {
      "bufferView": 2,
      "byteOffset": 1656024,
      "componentType": 5126,
      "count": 5284,
      "max": [
        1.474226951599121,
        1.474226713180542,
        2.0157110691070557
      ],
      "min": [
        -1.474226713180542,
        -1.474226713180542,
        0.0
      ],
      "type": "VEC3"
    },
    {
      "bufferView": 2,
      "byteOffset": 1719432,
      "componentType": 5126,
      "count": 5284,
      "max": [
        0.9790299534797668,
        0.9790299534797668,
        1.0
      ],
      "min": [
        -0.9790299534797668,
        -0.9790299534797668,
        -1.0
      ],
      "type": "VEC3"
    },
    {
      "bufferView": 3,
      "byteOffset": 1104016,
      "componentType": 5126,
      "count": 5284,
      "max": [
        1.0,
        1.0,
        0.130722314119339,
        1.0
      ],
      "min": [
        -1.0,
        -1.0,
        -0.15168236196041107,
        -1.0
      ],
      "type": "VEC4"
    },
    {
      "bufferView": 1,
      "byteOffset": 552008,
      "componentType": 5126,
      "count": 5284,
      "max": [
        0.9339393377304077,
        0.9694508910179138
      ],
      "min": [
        0.018516166135668755,
        0.02389499545097351
      ],
      "type": "VEC2"
    },
    {
      "bufferView": 0,
      "byteOffset": 1633920,
      "componentType": 5125,
      "count": 29952,
      "type": "SCALAR"
    },
    {
      "bufferView": 2,
      "byteOffset": 1782840,
      "componentType": 5126,
      "count": 49938,
      "max": [
        0.9896203279495239,
        0.9861257076263428,
        1.3171398639678955
      ],
      "min": [
        -0.9799963235855103,
        -0.9850270748138428,
        -1.3797036409378052
      ],
      "type": "VEC3"
    },
    {
      "bufferView": 2,
      "byteOffset": 2382096,
      "componentType": 5126,
      "count": 49938,
      "max": [
        1.0,
        1.0,
        1.0
      ],
      "min": [
        -1.0,
        -1.0,
        -1.0
      ],
      "type": "VEC3"
    },
    {
      "bufferView": 3,
      "byteOffset": 1188560,
      "componentType": 5126,
      "count": 49938,
      "max": [
        1.0,
        1.0,
        0.9943952560424805,
        1.0
      ],
      "min": [
        -1.0,
        -1.0,
        -0.9974107146263123,
        -1.0
      ],
      "type": "VEC4"
    },
    {
      "bufferView": 1,
      "byteOffset": 594280,
      "componentType": 5126,
      "count": 49938,
      "max": [
        0.9837665557861328,
        0.9816118478775024
      ],
      "min": [
        0.018462426960468292,
        0.008930802345275879
      ],
      "type": "VEC2"
    },
    {
      "bufferView": 0,
      "byteOffset": 1753728,
      "componentType": 5125,
      "count": 250416,
      "type": "SCALAR"
    },
    {
      "bufferView": 2,
      "byteOffset": 2981352,
      "componentType": 5126,
      "count": 65532,
      "max": [
        0.2797617018222809,
        1.4928388595581055,
        4.343772888183594
      ],
      "min": [
        -0.4958449602127075,
        -1.4306191205978394,
        2.3716602325439453
      ],
      "type": "VEC3"
    },
    {
      "bufferView": 2,
      "byteOffset": 3767736,
      "componentType": 5126,
      "count": 65532,
      "max": [
        0.9999849796295166,
        0.9999792575836182,
        0.9997841119766235
      ],
      "min": [
        -0.9999439716339111,
        -0.9999926090240479,
        -0.999976634979248
      ],
      "type": "VEC3"
    },
    {
      "bufferView": 0,
      "byteOffset": 2755392,
      "componentType": 5125,
      "count": 391449,
      "type": "SCALAR"
    },
    {
      "bufferView": 2,
      "byteOffset": 4554120,
      "componentType": 5126,
      "count": 65532,
      "max": [
        0.6871377825737,
        1.4397273063659668,
        4.360844612121582
      ],
      "min": [
        -0.769677996635437,
        -1.3134007453918457,
        2.2113311290740967
      ],
      "type": "VEC3"
    },
    {
      "bufferView": 2,
      "byteOffset": 5340504,
      "componentType": 5126,
      "count": 65532,
      "max": [
        0.9999986886978149,
        0.9999994039535522,
        0.9999783039093018
      ],
      "min": [
        -0.9999977350234985,
        -0.9999741315841675,
        -0.9999986886978149
      ],
      "type": "VEC3"
    },
    {
      "bufferView": 0,
      "byteOffset": 4321188,
      "componentType": 5125,
      "count": 389163,
      "type": "SCALAR"
    },
    {
      "bufferView": 2,
      "byteOffset": 6126888,
      "componentType": 5126,
      "count": 65532,
      "max": [
        1.1120535135269165,
        1.1873220205307007,
        4.29013729095459
      ],
      "min": [
        -0.7864893674850464,
        -1.2863380908966064,
        2.403688430786133
      ],
      "type": "VEC3"
    },
    {
      "bufferView": 2,
      "byteOffset": 6913272,
      "componentType": 5126,
      "count": 65532,
      "max": [
        0.9999532699584961,
        0.9999760389328003,
        0.999835729598999
      ],
      "min": [
        -0.9999773502349854,
        -0.9999755620956421,
        -0.9999687671661377
      ],
      "type": "VEC3"
    },
    {
      "bufferView": 0,
      "byteOffset": 5877840,
      "componentType": 5125,
      "count": 389784,
      "type": "SCALAR"
    },
    {
      "bufferView": 2,
      "byteOffset": 7699656,
      "componentType": 5126,
      "count": 30816,
      "max": [
        0.9832701683044434,
        1.3118516206741333,
        4.256236553192139
      ],
      "min": [
        -0.7322883605957031,
        -1.2669111490249634,
        2.33809494972229
      ],
      "type": "VEC3"
    },
    {
      "bufferView": 2,
      "byteOffset": 8069448,
      "componentType": 5126,
      "count": 30816,
      "max": [
        0.9999898672103882,
        0.9999915361404419,
        0.9999951124191284
      ],
      "min": [
        -0.9999186992645264,
        -0.9998880624771118,
        -0.9999592304229736
      ],
      "type": "VEC3"
    },
    {
      "bufferView": 0,
      "byteOffset": 7436976,
      "componentType": 5125,
      "count": 181284,
      "type": "SCALAR"
    }
  ],
  "asset": {
    "extras": {
      "author": "¡Jacques (https://sketchfab.com/iJacques)",
      "license": "CC-BY-4.0 (http://creativecommons.org/licenses/by/4.0/)",
      "source": "https://sketchfab.com/3d-models/elegant-cupcake-a16421ab77124c068604160da4de8781",
      "title": "Elegant Cupcake"
    },
    "generator": "Sketchfab-12.63.0",
    "version": "2.0"
  },
  "bufferViews": [
    {
      "buffer": 0,
      "byteLength": 8162112,
      "name": "floatBufferViews",
      "target": 34963
    },
    {
      "buffer": 0,
      "byteLength": 993784,
      "byteOffset": 8162112,
      "byteStride": 8,
      "name": "floatBufferViews",
      "target": 34962
    },
    {
      "buffer": 0,
      "byteLength": 8439240,
      "byteOffset": 9155896,
      "byteStride": 12,
      "name": "floatBufferViews",
      "target": 34962
    },
    {
      "buffer": 0,
      "byteLength": 1987568,
      "byteOffset": 17595136,
      "byteStride": 16,
      "name": "floatBufferViews",
      "target": 34962
    }
  ],
  "buffers": [
    {
      "byteLength": 19582704,
      "uri": "scene.bin"
    }
  ],
  "images": [
    {
      "uri": "textures/Icing_normal.png"
    },
    {
      "uri": "textures/Cake_baseColor.png"
    },
    {
      "uri": "textures/Cake_normal.png"
    },
    {
      "uri": "textures/Paper_baseColor.png"
    },
    {
      "uri": "textures/Paper_normal.png"
    },
    {
      "uri": "textures/Strawberry_baseColor.png"
    },
    {
      "uri": "textures/Strawberry_metallicRoughness.png"
    },
    {
      "uri": "textures/Strawberry_normal.png"
    }
  ],
  "materials": [
    {
      "doubleSided": true,
      "name": "Icing",
      "normalTexture": {
        "index": 0,
        "scale": 0.4860587449943494
      },
      "pbrMetallicRoughness": {
        "baseColorFactor": [
          0.8648245820318267,
          0.07731644630906398,
          0.036862853126143555,
          1.0
        ],
        "metallicFactor": 0.0,
        "roughnessFactor": 0.1904612607176199
      }
    },
    {
      "doubleSided": true,
      "name": "Cake",
      "normalTexture": {
        "index": 2,
        "scale": 0.6370021412207646
      },
      "pbrMetallicRoughness": {
        "baseColorTexture": {
          "index": 1
        },
        "metallicFactor": 0.0,
        "roughnessFactor": 0.26593295883082746
      }
    },
    {
      "doubleSided": true,
      "name": "Paper",
      "normalTexture": {
        "index": 4,
        "scale": 0.4546122041138463
      },
      "pbrMetallicRoughness": {
        "baseColorTexture": {
          "index": 3
        },
        "metallicFactor": 0.0,
        "roughnessFactor": 0.9577051495
      }
    },
    {
      "doubleSided": true,
      "name": "Strawberry",
      "normalTexture": {
        "index": 7
      },
      "pbrMetallicRoughness": {
        "baseColorTexture": {
          "index": 5
        },
        "metallicFactor": 0.0,
        "metallicRoughnessTexture": {
          "index": 6
        },
        "roughnessFactor": 0.6558700657490665
      }
    },
    {
      "doubleSided": true,
      "name": "Syrup",
      "pbrMetallicRoughness": {
        "baseColorFactor": [
          0.1347365746164536,
          0.013009648278890769,
          0.0031725450521353175,
          1.0
        ],
        "metallicFactor": 0.0,
        "roughnessFactor": 0.20303987706982116
      }
    }
  ],
  "meshes": [
    {
      "name": "Icing_Icing_0",
      "primitives": [
        {
          "attributes": {
            "NORMAL": 1,
            "POSITION": 0,
            "TANGENT": 2,
            "TEXCOORD_0": 3
          },
          "indices": 4,
          "material": 0,
          "mode": 4
        }
      ]
    },
    {
      "name": "Cake_Cake_0",
      "primitives": [
        {
          "attributes": {
            "NORMAL": 6,
            "POSITION": 5,
            "TANGENT": 7,
            "TEXCOORD_0": 8
          },
          "indices": 9,
          "material": 1,
          "mode": 4
        }
      ]
    },
    {
      "name": "Cup_Paper_0",
      "primitives": [
        {
          "attributes": {
            "NORMAL": 11,
            "POSITION": 10,
            "TANGENT": 12,
            "TEXCOORD_0": 13
          },
          "indices": 14,
          "material": 2,
          "mode": 4
        }
      ]
    },
    {
      "name": "Strawberry_Strawberry_0",
      "primitives": [
        {
          "attributes": {
            "NORMAL": 16,
            "POSITION": 15,
            "TANGENT": 17,
            "TEXCOORD_0": 18
          },
          "indices": 19,
          "material": 3,
          "mode": 4
        }
      ]
    },
    {
      "name": "Syrup_Syrup_0",
      "primitives": [
        {
          "attributes": {
            "NORMAL": 21,
            "POSITION": 20
          },
          "indices": 22,
          "material": 4,
          "mode": 4
        }
      ]
    },
    {
      "name": "Syrup_Syrup_0",
      "primitives": [
        {
          "attributes": {
            "NORMAL": 24,
            "POSITION": 23
          },
          "indices": 25,
          "material": 4,
          "mode": 4
        }
      ]
    },
    {
      "name": "Syrup_Syrup_0",
      "primitives": [
        {
          "attributes": {
            "NORMAL": 27,
            "POSITION": 26
          },
          "indices": 28,
          "material": 4,
          "mode": 4
        }
      ]
    },
    {
      "name": "Syrup_Syrup_0",
      "primitives": [
        {
          "attributes": {
            "NORMAL": 30,
            "POSITION": 29
          },
          "indices": 31,
          "material": 4,
          "mode": 4
        }
      ]
    }
  ],
  "nodes": [
    {
      "children": [
        1
      ],
      "matrix": [
        1.0,
        0.0,
        0.0,
        0.0,
        0.0,
        2.220446049250313e-16,
        -1.0,
        0.0,
        0.0,
        1.0,
        2.220446049250313e-16,
        0.0,
        -0.0006040346343070269,
        -5.189650535583496,
        0.00011489276948735369,
        1.0
      ],
      "name": "Sketchfab_model"
    },
    {
      "children": [
        2
      ],
      "matrix": [
        1.0,
        0.0,
        0.0,
        0.0,
        0.0,
        0.0,
        1.0,
        0.0,
        0.0,
        -1.0,
        0.0,
        0.0,
        0.0,
        0.0,
        0.0,
        1.0
      ],
      "name": "28f71942c97440e392ebce93027b707b.fbx"
    },
    {
      "children": [
        3,
        5,
        7,
        9,
        11
      ],
      "name": "RootNode"
    },
    {
      "children": [
        4
      ],
      "matrix": [
        82.72199847592445,
        0.0,
        56.187818681179934,
        0.0,
        56.18781868117988,
        -4.371139006309477e-06,
        -82.72199847592438,
        0.0,
        2.456047279379293e-06,
        99.99998474121084,
        -3.6158929884015656e-06,
        0.0,
        0.0,
        4.76837158203125e-05,
        0.0,
        1.0
      ],
      "name": "Icing"
    },
    {
      "mesh": 0,
      "name": "Icing_Icing_0"
    },
    {
      "children": [
        6
      ],
      "matrix": [
        82.72199847592445,
        0.0,
        56.187818681179934,
        0.0,
        56.18781868117988,
        -4.371139006309477e-06,
        -82.72199847592438,
        0.0,
        2.456047279379293e-06,
        99.99998474121084,
        -3.6158929884015656e-06,
        0.0,
        0.0,
        4.76837158203125e-05,
        0.0,
        1.0
      ],
      "name": "Cake"
    },
    {
      "mesh": 1,
      "name": "Cake_Cake_0"
    },
    {
      "children": [
        8
      ],
      "matrix": [
        82.72199847592445,
        0.0,
        56.187818681179934,
        0.0,
        56.18781868117988,
        -4.371139006309477e-06,
        -82.72199847592438,
        0.0,
        2.456047279379293e-06,
        99.99998474121084,
        -3.6158929884015656e-06,
        0.0,
        0.0,
        4.76837158203125e-05,
        0.0,
        1.0
      ],
      "name": "Cup"
    },
    {
      "mesh": 2,
      "name": "Cup_Paper_0"
    },
    {
      "children": [
        10
      ],
      "matrix": [
        -37.15441421765168,
        -65.39916728698044,
        -21.924150213257363,
        0.0,
        -41.0127038996126,
        0.9237613512782029,
        66.7478443402433,
        0.0,
        -55.45878617700286,
        43.13079133392048,
        -34.67313974060892,
        0.0,
        -3.8423962593078613,
        345.5488586425781,
        -16.397233963012695,
        1.0
      ],
      "name": "Strawberry"
    },
    {
      "mesh": 3,
      "name": "Strawberry_Strawberry_0"
    },
    {
      "children": [
        12,
        13,
        14,
        15
      ],
      "matrix": [
        82.72199847592445,
        0.0,
        56.187818681179934,
        0.0,
        56.18781868117988,
        -4.371139006309477e-06,
        -82.72199847592438,
        0.0,
        2.456047279379293e-06,
        99.99998474121084,
        -3.6158929884015656e-06,
        0.0,
        0.0,
        4.76837158203125e-05,
        0.0,
        1.0
      ],
      "name": "Syrup"
    },
    {
      "mesh": 4,
      "name": "Syrup_Syrup_0"
    },
    {
      "mesh": 5,
      "name": "Syrup_Syrup_0"
    },
    {
      "mesh": 6,
      "name": "Syrup_Syrup_0"
    },
    {
      "mesh": 7,
      "name": "Syrup_Syrup_0"
    }
  ],
  "samplers": [
    {
      "magFilter": 9729,
      "minFilter": 9987,
      "wrapS": 10497,
      "wrapT": 10497
    }
  ],
  "scene": 0,
  "scenes": [
    {
      "name": "Sketchfab_Scene",
      "nodes": [
        0
      ]
    }
  ],
  "textures": [
    {
      "sampler": 0,
      "source": 0
    },
    {
      "sampler": 0,
      "source": 1
    },
    {
      "sampler": 0,
      "source": 2
    },
    {
      "sampler": 0,
      "source": 3
    },
    {
      "sampler": 0,
      "source": 4
    },
    {
      "sampler": 0,
      "source": 5
    },
    {
      "sampler": 0,
      "source": 6
    },
    {
      "sampler": 0,
      "source": 7
    }
  ]
}
